[img]http://img231.imageshack.us/img231/9890/fastml.jpg[/img]
[code]
Fast Five 2011 720p BDRiP XViD AC3 - IMAGiNE                                                                


Ripper ...........: IMAGiNE              IMDB Rating.......: 7.6/10                             
Video Codec.......: XViD                 Release Date......: 18/08/11
Audio Codec.......: AC3                  Theatre Date......: 29/04/11
Audio Bitrate.....: 448                  Runtime...........: 2h 10mn
Subtitles.........: ENGLISH              Language..........: ENGLISH
Resolution........: 1280 x 544           IMDb URL..........: http://www.imdb.com/title/tt1596343/

DETAILS:

Video
ID                               : 0
Format                           : MPEG-4 Visual
Format profile                   : Advanced Simple@L5
Format settings, BVOP            : 2
Format settings, QPel            : No
Format settings, GMC             : No warppoints
Format settings, Matrix          : Default (MPEG)
Muxing mode                      : Packed bitstream
Codec ID                         : XVID
Codec ID/Hint                    : XviD
Duration                         : 2h 10mn
Bit rate                         : 3 343 Kbps
Width                            : 1 280 pixels
Height                           : 544 pixels
Display aspect ratio             : 2.35:1
Frame rate                       : 23.976 fps
Color space                      : YUV
Chroma subsampling               : 4:2:0
Bit depth                        : 8 bits
Scan type                        : Progressive
Compression mode                 : Lossy
Bits/(Pixel*Frame)               : 0.200
Stream size                      : 3.04 GiB (88%)
Writing library                  : XviD 64

Audio
ID                               : 1
Format                           : AC-3
Format/Info                      : Audio Coding 3
Mode extension                   : CM (complete main)
Codec ID                         : 2000
Duration                         : 2h 10mn
Bit rate mode                    : Constant
Bit rate                         : 448 Kbps
Channel(s)                       : 6 channels
Channel positions                : Front: L C R, Side: L R, LFE
Sampling rate                    : 48.0 KHz
Bit depth                        : 16 bits
Compression mode                 : Lossy
Stream size                      : 418 MiB (12%)
Alignment                        : Aligned on interleaves
Interleave, duration             : 42 ms (1.00 video frame)

Plot:

Dominic and his crew find themselves on the wrong side of the law once again as they try to switch lanes between a ruthless drug lord and a relentless federal agent.

SOURCES:

VIDEO: ....... FAST_FIVE_G52
AUDIO: ....... FAST_FIVE_G52 Thanks Mate :D

NOTES:
IMAGiNE bringing you another release..........
Fast Five 720p BDRiP.......
Ok so first we made a script to crop 
resize and sharpen.........
Then we took the subtitles from source
and hardcoded them to our encode :P
Last we converted the DTS to AC3 and muxed
Enjoy Folks!

[/code]
Screens:
[img]http://img192.imageshack.us/img192/1771/23448515.png[/img]
[img]http://img228.imageshack.us/img228/7529/87975984.png[/img]
[img]http://img220.imageshack.us/img220/6942/63144354.png[/img]
[img]http://img593.imageshack.us/img593/8083/57791070.jpg[/img]
[img]http://img20.imageshack.us/img20/7862/43651702.png[/img]